<svg width="127" height="95" viewBox="0 0 127 95" fill="none" xmlns="http://www.w3.org/2000/svg">
<rect width="127" height="95" fill="white"/>
<rect x="5.5" y="5.5" width="116" height="84" fill="white" stroke="black"/>
<path d="M15.332 44.228C14.724 44.228 14.2933 44.1647 14.04 44.038C13.812 43.9367 13.698 43.7213 13.698 43.392V42.67C13.6727 42.4673 13.66 42.2393 13.66 41.986V41.91L13.698 36.362L13.66 20.668C13.66 19.0467 13.6347 17.6407 13.584 16.45C13.584 16.146 13.6473 15.8927 13.774 15.69C13.9007 15.4873 14.0653 15.386 14.268 15.386H16.624C16.9787 15.386 17.2447 15.4113 17.422 15.462C17.6753 15.538 17.802 15.7533 17.802 16.108C17.802 16.3107 17.726 16.4753 17.574 16.602C17.422 16.7287 17.2573 16.8047 17.08 16.83H16.434L15.826 16.792L15.218 16.754C15.0407 16.754 14.914 16.792 14.838 16.868C14.7873 16.9187 14.762 17.0327 14.762 17.21C14.762 18.4007 14.7747 19.4773 14.8 20.44V23.67V28.42C14.8 28.4707 14.8253 28.496 14.876 28.496H14.914H14.952C15.5853 28.4453 16.2693 28.42 17.004 28.42C17.4093 28.42 17.612 28.5973 17.612 28.952C17.612 29.2053 17.5613 29.3827 17.46 29.484C17.384 29.56 17.2447 29.598 17.042 29.598H14.876C14.7747 29.598 14.724 29.6613 14.724 29.788L14.8 35.412C14.8507 37.16 14.876 39.174 14.876 41.454V42.86H16.51H18.106H18.448C18.904 42.86 19.132 43.0247 19.132 43.354C19.132 43.7593 19.018 44 18.79 44.076C18.486 44.1773 17.8653 44.228 16.928 44.228H15.332ZM23.8829 44.494C23.5282 44.494 23.3129 44.2027 23.2369 43.62C23.2876 43.468 23.3129 43.05 23.3129 42.366C23.3129 40.0353 23.3509 36.5773 23.4269 31.992C23.5029 27.432 23.5409 24.1387 23.5409 22.112L23.6169 20.744L23.7309 19.604C23.7309 19.4267 23.8196 19.338 23.9969 19.338C24.1236 19.338 24.3009 19.376 24.5289 19.452L24.6429 19.49C24.6429 20.0473 24.6302 20.554 24.6049 21.01V22.492V26.634C24.6302 27.85 24.6429 29.2307 24.6429 30.776C24.6176 30.9027 24.6049 31.1813 24.6049 31.612L24.5669 32.41C24.5416 32.9167 24.5289 33.436 24.5289 33.968C24.5289 34.5507 24.5416 35.0827 24.5669 35.564L24.6049 37.198L24.4909 37.502L24.5289 37.464C24.5289 37.54 24.5162 37.5907 24.4909 37.616V37.768C24.4909 37.9707 24.5289 38.148 24.6049 38.3L24.4909 41.948V42.176C24.4909 42.6067 24.5036 42.86 24.5289 42.936C24.5289 43.0627 24.5922 43.126 24.7189 43.126L26.6949 43.202C27.2776 43.202 27.6702 43.2147 27.8729 43.24C28.1009 43.24 28.2402 43.24 28.2909 43.24H28.4049C28.5316 43.24 28.6582 43.316 28.7849 43.468C28.9116 43.5947 28.9749 43.734 28.9749 43.886C28.9749 44.19 28.7722 44.3547 28.3669 44.38C27.9362 44.3547 26.8849 44.342 25.2129 44.342L25.2889 44.38C25.0356 44.38 24.7949 44.3927 24.5669 44.418C24.3642 44.4687 24.1362 44.494 23.8829 44.494ZM33.3838 44.494C32.9278 44.494 32.6744 44.228 32.6238 43.696V43.202C32.6491 43.0753 32.6618 42.9233 32.6618 42.746L32.5098 42.594C32.7124 42.062 32.8138 41.5427 32.8138 41.036C32.8138 40.4533 32.7758 39.6173 32.6998 38.528L32.6238 36.02C32.6238 34.7533 32.6618 32.8533 32.7378 30.32C32.8391 28.0653 32.8898 26.1527 32.8898 24.582L32.8138 22.302C32.7631 21.618 32.7378 20.858 32.7378 20.022C32.7378 19.642 32.8264 19.376 33.0038 19.224C33.1811 19.0467 33.4598 18.958 33.8398 18.958C34.0931 18.958 34.2958 19.034 34.4478 19.186C34.4984 19.2113 34.8658 19.262 35.5498 19.338C36.1831 19.414 36.7278 19.528 37.1838 19.68C37.6651 19.832 37.9058 20.022 37.9058 20.25C37.9058 20.5033 37.6651 20.7567 37.1838 21.01C35.7398 20.5287 34.7138 20.288 34.1058 20.288L33.9158 20.516C33.9411 20.744 33.9538 21.2887 33.9538 22.15C33.9538 23.2393 33.9284 24.2147 33.8778 25.076C33.8524 25.9627 33.8398 26.9507 33.8398 28.04C33.8398 28.7493 34.0171 29.104 34.3718 29.104L34.9798 29.066C35.1824 29.0407 35.3978 29.028 35.6258 29.028C36.6138 29.028 37.1078 29.256 37.1078 29.712C37.1078 29.9907 37.0444 30.2313 36.9178 30.434C36.7911 30.6113 36.6011 30.7 36.3478 30.7C35.9678 30.7 35.6764 30.5987 35.4738 30.396L34.2578 30.206H34.0678L33.8778 30.396V30.51C33.9284 30.9407 33.9538 31.9413 33.9538 33.512C33.9538 34.5 33.9411 35.3993 33.9158 36.21L33.8778 38.908C33.8778 39.896 33.9158 40.9093 33.9918 41.948C34.0171 42.5307 34.1438 42.9233 34.3718 43.126C34.5998 43.3033 35.0178 43.392 35.6258 43.392L36.3098 43.354C36.5378 43.3287 36.7911 43.316 37.0698 43.316C37.8044 43.316 38.1718 43.4807 38.1718 43.81C38.1718 44.266 37.6144 44.494 36.4998 44.494H33.3838ZM52.0744 44.152C51.8718 44.152 51.7198 44.076 51.6184 43.924C51.5424 43.772 51.4664 43.544 51.3904 43.24C51.3651 43.0373 51.3144 42.86 51.2384 42.708L51.2764 42.594C51.0738 41.4033 50.6431 39.9467 49.9844 38.224L49.3004 36.248C49.2498 36.1973 49.0091 35.5513 48.5784 34.31L48.2744 33.398C45.9944 26.3553 44.5631 22.5427 43.9804 21.96C43.7778 22.644 43.6764 23.5307 43.6764 24.62C43.6764 25.2027 43.6891 25.7093 43.7144 26.14L43.7524 27.622L43.7144 28.534C43.6891 28.8127 43.6764 29.1167 43.6764 29.446C43.6764 30.0033 43.7018 30.4847 43.7524 30.89C43.8031 31.7007 43.8284 32.106 43.8284 32.106H43.7144C43.7144 36.3367 43.8031 38.6673 43.9804 39.098V42.518C44.0818 42.7207 44.1324 42.9867 44.1324 43.316C44.1324 43.5187 44.0564 43.696 43.9044 43.848C43.7778 44 43.6131 44.076 43.4104 44.076C42.8784 44.076 42.6124 43.392 42.6124 42.024L42.6884 40.808C42.7391 40.428 42.7644 40.01 42.7644 39.554C42.7644 38.338 42.7264 36.514 42.6504 34.082C42.5744 31.65 42.5364 29.826 42.5364 28.61C42.5364 27.8753 42.5744 26.748 42.6504 25.228C42.7264 23.7333 42.7644 22.6187 42.7644 21.884V21.39C42.7644 20.1487 42.9924 19.338 43.4484 18.958L43.5624 19.072L43.9424 18.996C44.0438 19.0213 44.1578 19.0973 44.2844 19.224C44.3858 19.3253 44.4364 19.4393 44.4364 19.566L44.5124 19.794C44.5124 19.8447 44.5124 19.8953 44.5124 19.946C44.5378 19.9713 44.5504 19.984 44.5504 19.984C44.9558 21.7827 45.8678 24.3033 47.2864 27.546C48.7304 30.966 49.6298 33.2333 49.9844 34.348C50.2378 35.2347 50.4404 36.02 50.5924 36.704C51.0738 38.8573 51.6438 40.5167 52.3024 41.682L52.3784 41.568C52.9611 35.944 53.2524 29.0407 53.2524 20.858L53.2144 20.402C53.1891 20.2753 53.1764 20.1107 53.1764 19.908C53.1764 19.376 53.3538 19.11 53.7084 19.11C53.9364 19.11 54.1264 19.224 54.2784 19.452C54.4558 19.68 54.5444 19.9333 54.5444 20.212V22.758L54.3544 23.062C54.3544 25.4687 54.2151 29.4207 53.9364 34.918C53.6578 40.4153 53.3918 43.4047 53.1384 43.886L52.4924 44.038V44.076L52.4544 44.038L52.0744 44.152ZM67.349 44.342C66.969 44.342 66.7283 44.2913 66.627 44.19C66.5256 44.114 66.4496 43.886 66.399 43.506C66.171 41.6567 66.0316 40.504 65.981 40.048L65.791 38.528C65.2336 38.4013 64.6003 38.338 63.891 38.338L62.523 38.262C61.915 38.186 61.4716 38.148 61.193 38.148C61.041 38.148 60.9523 38.2113 60.927 38.338C60.927 38.414 60.9143 38.452 60.889 38.452L60.813 39.212C60.7876 39.668 60.6483 40.58 60.395 41.948C60.2683 42.632 60.1163 43.164 59.939 43.544C59.7363 43.9747 59.5463 44.19 59.369 44.19C59.217 44.19 59.0523 44.1267 58.875 44C58.6976 43.848 58.609 43.696 58.609 43.544L58.647 43.43L58.685 43.316C59.141 41.5173 59.521 39.7313 59.825 37.958L60.281 35.602L60.737 32.714C60.737 32.714 60.8763 31.878 61.155 30.206C61.2816 29.522 61.5096 28.42 61.839 26.9C62.1936 25.1773 62.409 23.9993 62.485 23.366C62.5103 23.29 62.561 22.8213 62.637 21.96C62.7383 20.9973 62.827 20.288 62.903 19.832C62.979 19.1733 63.055 18.7933 63.131 18.692H63.397C63.473 18.7173 63.5616 18.73 63.663 18.73C63.967 18.73 64.195 18.654 64.347 18.502C64.5243 18.502 64.6763 18.5653 64.803 18.692C64.955 18.7933 65.031 18.92 65.031 19.072C65.031 20.288 65.1196 21.6813 65.297 23.252C65.3983 24.0627 65.4743 24.734 65.525 25.266C65.8036 28.534 66.513 34.6647 67.653 43.658V43.772C67.653 44.0253 67.5516 44.2153 67.349 44.342ZM65.601 37.502C65.3476 33.854 64.8663 28.4707 64.157 21.352L62.105 31.498C61.5223 34.4113 61.231 36.248 61.231 37.008C61.231 37.1347 61.7123 37.2487 62.675 37.35C63.6376 37.4513 64.4863 37.502 65.221 37.502H65.601Z" fill="black"/>
<path d="M16.434 78.848C15.826 78.8227 15.0533 78.81 14.116 78.81C13.9387 78.81 13.774 78.7467 13.622 78.62C13.4953 78.4933 13.432 78.354 13.432 78.202C13.432 77.8727 13.6473 77.708 14.078 77.708H15.56C15.56 74.7947 15.4713 71.1213 15.294 66.688C15.1927 63.1413 15.0913 60.3547 14.99 58.328L15.028 56.39V53.882C15.028 52.6153 15.0027 51.8047 14.952 51.45H13.622C13.3687 51.45 13.242 51.2727 13.242 50.918C13.242 50.69 13.3433 50.5127 13.546 50.386C13.7233 50.31 14.192 50.272 14.952 50.272H16.016C16.396 50.2973 16.8773 50.31 17.46 50.31C17.6627 50.31 17.8273 50.3607 17.954 50.462C18.0807 50.538 18.144 50.6647 18.144 50.842C18.144 50.994 18.106 51.1333 18.03 51.26C17.954 51.3867 17.84 51.45 17.688 51.45C17.5107 51.45 17.3587 51.4373 17.232 51.412H16.776H16.396C16.1427 51.412 15.9907 51.4373 15.94 51.488L15.864 51.64C15.864 53.616 16.0287 57.606 16.358 63.61C16.662 69.158 16.814 73.148 16.814 75.58V76.644C16.7887 76.9733 16.776 77.3153 16.776 77.67H18.144C18.7267 77.67 19.018 77.8473 19.018 78.202C19.018 78.354 18.9547 78.506 18.828 78.658C18.7267 78.7847 18.6127 78.848 18.486 78.848H16.434ZM26.9422 79.114C26.9422 77.1633 26.6255 74.288 25.9922 70.488C25.3842 66.688 24.5735 62.5333 23.5602 58.024L23.2562 56.846L22.7622 55.098C22.6102 54.566 22.5342 54.2367 22.5342 54.11C22.5342 54.034 22.5849 53.9453 22.6862 53.844C22.8129 53.7173 22.9269 53.654 23.0282 53.654C23.3829 53.654 23.6615 54.0467 23.8642 54.832C23.9655 55.1613 24.0542 55.5413 24.1302 55.972C24.2315 56.3773 24.3075 56.6687 24.3582 56.846C24.4089 57.226 24.4469 57.454 24.4722 57.53C24.9535 59.4807 25.2449 60.722 25.3462 61.254L25.7262 63.192L26.0682 65.016L26.4102 66.954C26.4862 67.638 26.5875 68.2333 26.7142 68.74L27.2842 72.464C27.2842 72.5653 27.3729 73.2113 27.5502 74.402L27.8162 76.264C28.3229 74.6173 28.7535 72.1093 29.1082 68.74C29.4629 65.5987 29.9695 62.4447 30.6282 59.278C31.1855 56.542 31.5782 54.5533 31.8062 53.312L32.3002 53.122C32.4015 53.1473 32.4902 53.198 32.5662 53.274C32.6675 53.35 32.7182 53.426 32.7182 53.502C32.7182 54.0593 32.6042 54.8193 32.3762 55.782L32.1482 56.77L31.5022 59.772C31.1222 61.4187 30.8562 62.6853 30.7042 63.572C30.5775 64.4587 30.4255 65.738 30.2482 67.41L30.1722 68.284C30.0455 69.652 29.9442 70.5767 29.8682 71.058C29.8175 71.5393 29.6782 72.16 29.4502 72.92C29.2475 73.68 29.0829 74.3513 28.9562 74.934L28.8802 75.808C28.8295 76.6947 28.7282 77.48 28.5762 78.164C28.3735 79.0253 27.9682 79.456 27.3602 79.456L26.9422 79.114ZM27.7782 76.378L27.7402 76.454L27.7782 76.53V76.378ZM45.0091 79.342C44.6291 79.342 44.3884 79.2913 44.2871 79.19C44.1858 79.114 44.1098 78.886 44.0591 78.506C43.8311 76.6567 43.6918 75.504 43.6411 75.048L43.4511 73.528C42.8938 73.4013 42.2604 73.338 41.5511 73.338L40.1831 73.262C39.5751 73.186 39.1318 73.148 38.8531 73.148C38.7011 73.148 38.6124 73.2113 38.5871 73.338C38.5871 73.414 38.5744 73.452 38.5491 73.452L38.4731 74.212C38.4478 74.668 38.3084 75.58 38.0551 76.948C37.9284 77.632 37.7764 78.164 37.5991 78.544C37.3964 78.9747 37.2064 79.19 37.0291 79.19C36.8771 79.19 36.7124 79.1267 36.5351 79C36.3578 78.848 36.2691 78.696 36.2691 78.544L36.3071 78.43L36.3451 78.316C36.8011 76.5173 37.1811 74.7313 37.4851 72.958L37.9411 70.602L38.3971 67.714C38.3971 67.714 38.5364 66.878 38.8151 65.206C38.9418 64.522 39.1698 63.42 39.4991 61.9C39.8538 60.1773 40.0691 58.9993 40.1451 58.366C40.1704 58.29 40.2211 57.8213 40.2971 56.96C40.3984 55.9973 40.4871 55.288 40.5631 54.832C40.6391 54.1733 40.7151 53.7933 40.7911 53.692H41.0571C41.1331 53.7173 41.2218 53.73 41.3231 53.73C41.6271 53.73 41.8551 53.654 42.0071 53.502C42.1844 53.502 42.3364 53.5653 42.4631 53.692C42.6151 53.7933 42.6911 53.92 42.6911 54.072C42.6911 55.288 42.7798 56.6813 42.9571 58.252C43.0584 59.0627 43.1344 59.734 43.1851 60.266C43.4638 63.534 44.1731 69.6647 45.3131 78.658V78.772C45.3131 79.0253 45.2118 79.2153 45.0091 79.342ZM43.2611 72.502C43.0078 68.854 42.5264 63.4707 41.8171 56.352L39.7651 66.498C39.1824 69.4113 38.8911 71.248 38.8911 72.008C38.8911 72.1347 39.3724 72.2487 40.3351 72.35C41.2978 72.4513 42.1464 72.502 42.8811 72.502H43.2611ZM59.1252 79.152C58.9226 79.152 58.7706 79.076 58.6692 78.924C58.5932 78.772 58.5172 78.544 58.4412 78.24C58.4159 78.0373 58.3652 77.86 58.2892 77.708L58.3272 77.594C58.1246 76.4033 57.6939 74.9467 57.0352 73.224L56.3512 71.248C56.3006 71.1973 56.0599 70.5513 55.6292 69.31L55.3252 68.398C53.0452 61.3553 51.6139 57.5427 51.0312 56.96C50.8286 57.644 50.7272 58.5307 50.7272 59.62C50.7272 60.2027 50.7399 60.7093 50.7652 61.14L50.8032 62.622L50.7652 63.534C50.7399 63.8127 50.7272 64.1167 50.7272 64.446C50.7272 65.0033 50.7526 65.4847 50.8032 65.89C50.8539 66.7007 50.8792 67.106 50.8792 67.106H50.7652C50.7652 71.3367 50.8539 73.6673 51.0312 74.098V77.518C51.1326 77.7207 51.1832 77.9867 51.1832 78.316C51.1832 78.5187 51.1072 78.696 50.9552 78.848C50.8286 79 50.6639 79.076 50.4612 79.076C49.9292 79.076 49.6632 78.392 49.6632 77.024L49.7392 75.808C49.7899 75.428 49.8152 75.01 49.8152 74.554C49.8152 73.338 49.7772 71.514 49.7012 69.082C49.6252 66.65 49.5872 64.826 49.5872 63.61C49.5872 62.8753 49.6252 61.748 49.7012 60.228C49.7772 58.7333 49.8152 57.6187 49.8152 56.884V56.39C49.8152 55.1487 50.0432 54.338 50.4992 53.958L50.6132 54.072L50.9932 53.996C51.0946 54.0213 51.2086 54.0973 51.3352 54.224C51.4366 54.3253 51.4872 54.4393 51.4872 54.566L51.5632 54.794C51.5632 54.8447 51.5632 54.8953 51.5632 54.946C51.5886 54.9713 51.6012 54.984 51.6012 54.984C52.0066 56.7827 52.9186 59.3033 54.3372 62.546C55.7812 65.966 56.6806 68.2333 57.0352 69.348C57.2886 70.2347 57.4912 71.02 57.6432 71.704C58.1246 73.8573 58.6946 75.5167 59.3532 76.682L59.4292 76.568C60.0119 70.944 60.3032 64.0407 60.3032 55.858L60.2652 55.402C60.2399 55.2753 60.2272 55.1107 60.2272 54.908C60.2272 54.376 60.4046 54.11 60.7592 54.11C60.9872 54.11 61.1772 54.224 61.3292 54.452C61.5066 54.68 61.5952 54.9333 61.5952 55.212V57.758L61.4052 58.062C61.4052 60.4687 61.2659 64.4207 60.9872 69.918C60.7086 75.4153 60.4426 78.4047 60.1892 78.886L59.5432 79.038V79.076L59.5052 79.038L59.1252 79.152ZM75.2357 79.684C74.6277 79.684 73.9057 78.544 73.0697 76.264C72.2844 74.1613 71.6004 71.8813 71.0177 69.424C70.4351 66.9667 70.1184 65.244 70.0677 64.256L69.9537 64.104L69.3837 65.32C69.1051 65.852 68.8897 66.2953 68.7377 66.65C68.6111 66.9793 68.4844 67.3973 68.3577 67.904C68.2057 68.3853 68.1297 68.8793 68.1297 69.386C68.1297 69.8927 68.1044 70.3487 68.0537 70.754L67.9777 72.122V76.986C67.9777 77.214 68.0157 77.5813 68.0917 78.088C68.1677 78.544 68.2057 78.8987 68.2057 79.152C68.2057 79.2787 68.1424 79.38 68.0157 79.456C67.8891 79.5573 67.7497 79.608 67.5977 79.608C67.2684 79.608 67.0404 79.5573 66.9137 79.456C66.8124 79.3547 66.7617 79.1393 66.7617 78.81V71.666C66.7617 71.2607 66.8251 70.4627 66.9517 69.272C67.0784 68.0813 67.1417 67.2833 67.1417 66.878C67.1417 65.814 67.2051 64.5853 67.3317 63.192C67.4331 61.7733 67.4837 60.5573 67.4837 59.544V54.262C67.6357 53.9833 67.8764 53.844 68.2057 53.844C68.4084 53.844 68.5731 53.92 68.6997 54.072C68.8517 54.1987 68.9277 54.3633 68.9277 54.566C68.7251 55.022 68.6237 55.63 68.6237 56.39L68.5477 60.38C68.4971 61.596 68.4717 62.9387 68.4717 64.408C68.7251 64.332 69.7131 62.584 71.4357 59.164C73.1584 55.7693 74.1084 54.072 74.2857 54.072C74.9444 54.072 75.2737 54.2873 75.2737 54.718C73.6524 57.1247 72.3097 59.468 71.2457 61.748L71.2077 62.964C71.1824 63.3187 71.1697 63.724 71.1697 64.18C71.1697 65.2947 71.6004 67.3847 72.4617 70.45C73.3231 73.5153 74.0577 75.6433 74.6657 76.834C74.9444 77.214 75.1091 77.4293 75.1597 77.48C75.4131 77.8347 75.5904 78.1387 75.6917 78.392C75.8184 78.62 75.8817 78.8607 75.8817 79.114C75.8817 79.2913 75.8184 79.4307 75.6917 79.532C75.5651 79.6333 75.4131 79.684 75.2357 79.684ZM81.5087 79C80.926 79 80.584 78.8733 80.4827 78.62C80.356 78.62 80.2547 78.6327 80.1787 78.658H79.8747C79.3174 78.658 78.9627 78.5313 78.8107 78.278C78.8107 78.1007 78.912 77.9487 79.1147 77.822L79.3047 77.632H80.4067L80.5587 77.48L80.6347 77.138L80.6727 76.682C80.6727 75.1367 80.6347 73.756 80.5587 72.54L80.4827 71.134L80.4067 68.36C80.4067 67.372 80.4447 65.89 80.5207 63.914L80.5967 59.506C80.5967 57.5807 80.5334 56.1113 80.4067 55.098C80.1787 55.022 79.7987 54.984 79.2667 54.984L78.8487 55.022C78.6967 55.0473 78.532 55.06 78.3547 55.06C77.8734 55.06 77.6327 54.8447 77.6327 54.414C77.6327 54.3127 77.7467 54.2113 77.9747 54.11C78.2027 54.0087 78.3927 53.958 78.5447 53.958C79.5074 53.958 80.47 54.0087 81.4327 54.11C82.0154 54.1353 82.598 54.2493 83.1807 54.452C83.6367 54.604 83.8647 54.8193 83.8647 55.098C83.8647 55.1487 83.8267 55.25 83.7507 55.402L82.8767 55.478C82.6994 55.326 82.332 55.25 81.7747 55.25L81.5847 55.364C81.6607 55.592 81.6987 56.2633 81.6987 57.378C81.6987 59.05 81.686 60.5573 81.6607 61.9L81.5847 66.422C81.5847 67.562 81.6354 68.9427 81.7367 70.564C81.8127 72.4133 81.8507 73.8067 81.8507 74.744V75.238C81.8254 75.4153 81.8127 75.6433 81.8127 75.922C81.8127 76.5047 81.8507 76.8593 81.9267 76.986L81.8887 77.062C81.8887 77.3153 82.1674 77.442 82.7247 77.442C82.9527 77.442 83.1427 77.4293 83.2947 77.404H83.8647C84.5994 77.404 84.9667 77.5813 84.9667 77.936C84.9667 78.164 84.8907 78.354 84.7387 78.506C84.5867 78.6327 84.384 78.696 84.1307 78.696C83.9027 78.696 83.7 78.6707 83.5227 78.62C83.32 78.5947 83.1047 78.582 82.8767 78.582C82.7247 78.582 82.4967 78.6453 82.1927 78.772C81.8887 78.924 81.6607 79 81.5087 79ZM98.1643 79.152C97.9616 79.152 97.8096 79.076 97.7083 78.924C97.6323 78.772 97.5563 78.544 97.4803 78.24C97.4549 78.0373 97.4043 77.86 97.3283 77.708L97.3663 77.594C97.1636 76.4033 96.7329 74.9467 96.0743 73.224L95.3903 71.248C95.3396 71.1973 95.0989 70.5513 94.6683 69.31L94.3643 68.398C92.0843 61.3553 90.6529 57.5427 90.0703 56.96C89.8676 57.644 89.7663 58.5307 89.7663 59.62C89.7663 60.2027 89.7789 60.7093 89.8043 61.14L89.8423 62.622L89.8043 63.534C89.7789 63.8127 89.7663 64.1167 89.7663 64.446C89.7663 65.0033 89.7916 65.4847 89.8423 65.89C89.8929 66.7007 89.9183 67.106 89.9183 67.106H89.8043C89.8043 71.3367 89.8929 73.6673 90.0703 74.098V77.518C90.1716 77.7207 90.2223 77.9867 90.2223 78.316C90.2223 78.5187 90.1463 78.696 89.9943 78.848C89.8676 79 89.7029 79.076 89.5003 79.076C88.9683 79.076 88.7023 78.392 88.7023 77.024L88.7783 75.808C88.8289 75.428 88.8543 75.01 88.8543 74.554C88.8543 73.338 88.8163 71.514 88.7403 69.082C88.6643 66.65 88.6263 64.826 88.6263 63.61C88.6263 62.8753 88.6643 61.748 88.7403 60.228C88.8163 58.7333 88.8543 57.6187 88.8543 56.884V56.39C88.8543 55.1487 89.0823 54.338 89.5383 53.958L89.6523 54.072L90.0323 53.996C90.1336 54.0213 90.2476 54.0973 90.3743 54.224C90.4756 54.3253 90.5263 54.4393 90.5263 54.566L90.6023 54.794C90.6023 54.8447 90.6023 54.8953 90.6023 54.946C90.6276 54.9713 90.6403 54.984 90.6403 54.984C91.0456 56.7827 91.9576 59.3033 93.3763 62.546C94.8203 65.966 95.7196 68.2333 96.0743 69.348C96.3276 70.2347 96.5303 71.02 96.6823 71.704C97.1636 73.8573 97.7336 75.5167 98.3923 76.682L98.4683 76.568C99.0509 70.944 99.3423 64.0407 99.3423 55.858L99.3043 55.402C99.2789 55.2753 99.2663 55.1107 99.2663 54.908C99.2663 54.376 99.4436 54.11 99.7983 54.11C100.026 54.11 100.216 54.224 100.368 54.452C100.546 54.68 100.634 54.9333 100.634 55.212V57.758L100.444 58.062C100.444 60.4687 100.305 64.4207 100.026 69.918C99.7476 75.4153 99.4816 78.4047 99.2283 78.886L98.5823 79.038V79.076L98.5443 79.038L98.1643 79.152ZM113.439 79.342C113.059 79.342 112.818 79.2913 112.717 79.19C112.615 79.114 112.539 78.886 112.489 78.506C112.261 76.6567 112.121 75.504 112.071 75.048L111.881 73.528C111.323 73.4013 110.69 73.338 109.981 73.338L108.613 73.262C108.005 73.186 107.561 73.148 107.283 73.148C107.131 73.148 107.042 73.2113 107.017 73.338C107.017 73.414 107.004 73.452 106.979 73.452L106.903 74.212C106.877 74.668 106.738 75.58 106.485 76.948C106.358 77.632 106.206 78.164 106.029 78.544C105.826 78.9747 105.636 79.19 105.459 79.19C105.307 79.19 105.142 79.1267 104.965 79C104.787 78.848 104.699 78.696 104.699 78.544L104.737 78.43L104.775 78.316C105.231 76.5173 105.611 74.7313 105.915 72.958L106.371 70.602L106.827 67.714C106.827 67.714 106.966 66.878 107.245 65.206C107.371 64.522 107.599 63.42 107.929 61.9C108.283 60.1773 108.499 58.9993 108.575 58.366C108.6 58.29 108.651 57.8213 108.727 56.96C108.828 55.9973 108.917 55.288 108.993 54.832C109.069 54.1733 109.145 53.7933 109.221 53.692H109.487C109.563 53.7173 109.651 53.73 109.753 53.73C110.057 53.73 110.285 53.654 110.437 53.502C110.614 53.502 110.766 53.5653 110.893 53.692C111.045 53.7933 111.121 53.92 111.121 54.072C111.121 55.288 111.209 56.6813 111.387 58.252C111.488 59.0627 111.564 59.734 111.615 60.266C111.893 63.534 112.603 69.6647 113.743 78.658V78.772C113.743 79.0253 113.641 79.2153 113.439 79.342ZM111.691 72.502C111.437 68.854 110.956 63.4707 110.247 56.352L108.195 66.498C107.612 69.4113 107.321 71.248 107.321 72.008C107.321 72.1347 107.802 72.2487 108.765 72.35C109.727 72.4513 110.576 72.502 111.311 72.502H111.691Z" fill="black"/>
</svg>
